/* XPM */
static char *c505c5a048df402f8122e89637b3617c[] = {
/* columns rows colors chars-per-pixel */
"64 64 32 1 ",
"  c #2E323D",
". c #2D3244",
"X c #2D334B",
"o c #2D394D",
"O c #2D3551",
"+ c #2D3C53",
"@ c #2D424E",
"# c #2C4353",
"$ c #2C4C54",
"% c #314453",
"& c #314D52",
"* c #2B5454",
"= c #2B5B54",
"- c #325553",
"; c #3A5353",
": c #335C54",
"> c #3A5E54",
", c #2E6054",
"< c #356354",
"1 c #3B6453",
"2 c #3E6954",
"3 c #435D53",
"4 c #436454",
"5 c #4B6553",
"6 c #446A53",
"7 c #4C6A53",
"8 c #516754",
"9 c #546A53",
"0 c #5A6B53",
"q c #636D53",
"w c #6B6D53",
"e c #706D53",
/* pixels */
".. ...........XXX.XX.......             ............XXX.X..X.X.X",
"   ..........XX.X..X.... .             .....OXX.X...XXXX..XXX...",
" ..XXX......X..X.XX.........        . .....OOX.X...OXXXXX.XX.XX.",
"...XXXXX.....X.XXXO....... ..      .......OOOX.....OXXXX.XX.X.X.",
".XXXX.XXX.XXXXXXOXOOXXXX.......   .......OOOOO.X..XXXOXXX.X.X.X.",
"..XXX.XXXXXXXXXXOXOOOXX...X..... .......oOOOOO..X..OXXXXXX.X.X..",
".XXXXXXXX.XOXXXOOOOO+oX...XX.XO. .......OOO+OO....OXOXOXXXX..X..",
"X..XXXXXXXOOOOOOOOOOOoOX..XX.OOO......XXOOOOOOX...OXXXXXXXX.XX.X",
"X..X.XXXXXOOOOOOOOOOOOXXXX..O+OO.....XOOOOOOO+..XXXOXXXXXXX.X.XX",
"....X.XXXXOOOOOOOOOOOOOXXX##OOOOX...OOOOOOOOO+X.XXXXXXXXXXXX.XXX",
".....X.XXXXOOOOOOOO++OXXXX##++++OXXXOOOO+O+OoO..XXXXXXXXXX..XXXO",
".X..X.XXXXOOOOOOO+OOoOOXoo##+#+++#++OOOOOOO+++X..XXXXXXXXXX.XXXX",
"..X..XX.O+#+O+++++O+oOXOoO##++#######+OOOOO+O+O.XXXXXXXX......XX",
"XXXXX..XO+##O+++#++++ooooo+#########$$##O++OO+X.XXXXX.X.......XX",
"XX..X.XXO++###++#+++OO+o+####+#######$##++O+++O.XXXX..........XX",
"XXXXX.XOO++#++##+++o+Oo++######++#+#######++++o.XXXX...........X",
"XXOXOXXXO+++++++++O+O+O++$#############$###+++oXXXXX............",
"OOOXXOOO++++++++++O++OO+#*#####++#+#$$##$#$##++XXX..............",
"OXOOXOXO+++++++++O++O+O+#*##++##+#############+.................",
"XOXOOXOO+##+++++++OO+OO+$*####+++###o++++++O+++XX...............",
"XOOXOXOO+++++++++OO++#$***#####$*$$+oXOOO++O++oXXXOXXX..........",
"OOXOOOOOO#+#++%$$*======**##$$*$$$#XXXOOOOOO##XXXXXOOXXXXX......",
"XOXOOOOOO+###==========****$$$$*$*oXoOXOXOX+#oXXXXOOXOXXXXXXX...",
"XOXOOOOOO+#%$==:=======***=$$$$$$#XXXXoXXXOX%oXXXXOXOXXOXXXXXXXX",
"XXOOOOOOO+#$-*=========***=*$*$**XoOXXXooOOO@XXXOXXOXXXOXXXXXXXX",
"OOOOOOOOO+$***=======*=*****#$$$$XXOXoXXXXXXoXXX.XOXOOXXXXXXXXXX",
"OOOOO+++%$$**:=====*===**=***#$*oXXoXXoXXOXXOXXXoOXXXXOXXXXXXXXX",
"OOOO+++++$***=========**=*=**$##X+OXoOOoOOX@>@oXXXXXOXXXXXXXXOXX",
"OOOOOO++%$$*:*=========*==*=**$#OOOXOoXXXXX-2<,=#XXOOXXXXXXOXXXX",
"OOOOOO++%;;-*:=,=,====********$$XOXXXXXX.Xo:2<<,=*$@XoX.XXOOXOXO",
"OOOOO++#%$;-:*========**=***$*$$OXXX.XXX.o*<<<,<==**$#OXXXOOXXXX",
"OOOOO++#$;*:::==,=====*=****$$##%XXX.XXX.@*22<,,===**$$+OXOXXXXX",
"OOOO++#%-;-::,=,,,=,==****$$####%-oXXXXOo#:11<<<<<<,$$==#OXOXXXX",
"OOOO++#%&--::<,,===,==**$#####++#**+XXXX@#<<<1<<<<<<,====+OOXXXX",
"OO++++#$355584,<,<<<<=#####++#+%#$*$+XX+#&<1<<<,<<<22:==*#OOXX.X",
"OO++$*::588901<<<<<<::*######+#+##=$#+O+$=<<<<<22222:<,:=$OOOOX.",
"+%*:::,108086<<<<<,::-**###+#++##$**##3;#<<12222222<<=:=$OOOOOOO",
"::>:>:>40008<<<<<,:::::*$####+#+##**$%7562121122222==:*#+OOOOOOO",
">>>::<:80002<<>:;::::-:**$#+#++#$***-3976622222222<<:*+#++OOOOOO",
">>>34>>0008<1:::-:::*:*=**$#+#+#$$**;966622222222<,=$+++++OOXXOO",
"::>>>>4800>:>::::-:*::*****$#++#$**=7766622222222=$#++++++++OOOO",
";>>>>>244443>:;:*:-=*-*:*****+##$*=<777776621126:###++++++++OOXX",
":>>>>4444:48544>:=--*********$+#*==477777666621:##+#++++++O+X.XX",
">>>>>444:=:4544444>:::******$***==<6777766661,=$+#++++++++OOXX.X",
">2>>444<,::154422>>111::****:**==,17776662=*===#+%##++++OOOOOXXX",
">>>>44<::::,442>22>11:<:::::01===,66661:=,==*==+++++#+#+++OOOXXX",
">>444::::::::>>2>>1<:<:*--:5w5,,=<64:*=*=*=*==*+#%#+#++#+#++OX..",
">>>4>:::::<<:11111>::--;-:3qw0<<24=*==*=======*+#++++###++OOOXX.",
":>4>,,,,,<:<::11::---:;>>>qwww2207<=*=========$#+##++%++#+ooOO..",
":>><,=,,<:<,:<>>>445553880wwee9q0721=====*====#++++#+%%++OoXXXoX",
"=><:=========*2898999999990weeqq97<2<:==*=====#++##++++oOXoXOXOX",
"**=*========*:24999999090590weqq062<<<,,======+#%+#++oXXXXXOXOXX",
"=====,====***1117999800097900wqq961<<<<<*====*+++++OOOXoXooOXXXX",
"==,,,====***:2214999080899700qq0961<<<<<,,===$+#++OOXXXoXXXXXXOX",
"=,=,=,==****2211159880009590q00996<,<<<<,<,==$#@OOOOOXXoXXXXOXXX",
",=======**$:<>2>1>9090909790qq97772,=,,,,,,,,+o.OO+OXooXXoXo..X.",
"=====*$****>11111<5009909799qq77766<,,=,=====@oo.oXo.o.oXoX.oX.X",
"===*$*$***=211<11<<900009900q0777662,,,=,====*oooooXoXoXXXo..X.X",
"==***$**$*<211<2<1<49000799007999612<,=====***@oooo.XooX.XXXX.XX",
"==*$***$**2><2<<11<<5009799062124211<,==*=*=**$ooooXo..oo..XXX.X",
"***$$****<1121<<<><<<009099<<<2,*<1<<<===******@oo.oX.X..X.X..XX",
"********:11111<1<<1<<50906,<<<=**-1<<,$*******$$ooooX.XXXXXXXXXX",
"$*$*****11<11<1<<<<<:<97<,,<<=*===<<<,$$$***$**$% o.XXXXX.X.XXXX",
"*$*****:11111:1<<<<><:-,,,<,*=**=*=<,<*@$@$$*$&-&oooXX.XX..X.XX."
};
