/* XPM */
static char *f79f3c5f0bb646749d7f979be67828d5[] = {
/* columns rows colors chars-per-pixel */
"64 64 53 1 ",
"  c #01222F",
". c #002633",
"X c #002937",
"o c #002D3B",
"O c #00313E",
"+ c #003443",
"@ c #003947",
"# c #003C4B",
"$ c #00404F",
"% c #004453",
"& c #014857",
"* c #004C5B",
"= c #01505F",
"- c #015463",
"; c #095764",
": c #015867",
"> c #015C6B",
", c #095D6B",
"< c #02606F",
"1 c #016473",
"2 c #0A6573",
"3 c #016877",
"4 c #0A6976",
"5 c #006778",
"6 c #016C7B",
"7 c #0A6D7B",
"8 c #02707F",
"9 c #0A707F",
"0 c #006F80",
"q c #047483",
"w c #097584",
"e c #057886",
"r c #0A7886",
"t c #027788",
"y c #047B8B",
"u c #0C7C8A",
"i c #117684",
"p c #117D8B",
"a c #057F90",
"s c #0C808F",
"d c #11808E",
"f c #078090",
"g c #0B8493",
"h c #0D8897",
"j c #0E8999",
"k c #138492",
"l c #158897",
"z c #138C9C",
"x c #1A8D9C",
"c c #16909F",
"v c #1B919F",
"b c #1691A1",
"n c #1A93A1",
/* pixels */
"11113986883OXO@=0653>%OX.o+%-:--=5835:&%#*:7wq68<X$8eer7===-=-=O",
"17wwrq88qq8-O@$>033555=o o%-=**&&:6351>&#@+o@=2= @8wrru9::-=>=@$",
"puurrq88qqq9&$&16555151>%&*&%%##@%66311>*@+@%;1#$38errs9>->>>$O-",
"8qwwqq8rrrrq1==36111111<=%%@++oo#:uppuuuw71><15:88ewwudw<<<>=@@<",
"6666689rrrrrw<>651>1111>*&%#@+#--<usuuuuw56666668qerrsdw111:$$$<",
"111155:369qww81311>>111:-&%%%->>>:wuruu9<<5555118qerusdw111*=*&-",
"::>1>>*5331117631>--11<:-=*:>>>>-<rrru9>><11<>11<88wuddp55::==**",
"--::>-*1311<<>$O*--*>1<>-:>>>><:=:wew9-=-:><>::><<888sdp31<>:==*",
"*=----->51<1>*@oo+@%-1<>>>><<<<<::9e8;&*=-:<:--:1:<8q8wu631<::-*",
"&&*=---:1111-%@@@@@@%:>>>><<<<:=:<88=$%&*=-::&&-<:=58qqqq651<:--",
"%&%&-:>>111>*%@%%%%*--<><><<<<::=<8=@@$&&*=-:&%-1:**3qq635351>:-",
"##%&>1>111<:*#@&*-::-=><<111<><:<<=OO@@$%&&=-=@*1:-&*6q6111511>:",
"###*1155511-&#@-:>>:-*=111111<<<<2:%OO@@#%%&=-#%5>-&#-q6>:>><11>",
"@+@<33336--*%#+>11>-=&%<1115<<<3886<<=$@@#%%**%%1>-&#@>6------<<",
"%+#66663>+#%%%%531:-*&$=153514989r8<<==&%#@#%&*%5>-*%@+:*******:",
"5@-06335%@%%*=-9351:=%$$16338rrrsdd<:=*&%@++o@%%1>-&%%%:>:::--==",
"r,22<11>##&*=-6ww5>11>&#=889s9rrupk,-=&%#@+oXXO%$#%%&*-1<<111506",
"*OO*<<<&%*=-:<rurr5::<1529dssdusukl>-*&%@++@%**&%%&*-:51<><<1155",
"oO@%,4>&*=-:<6ppuuu7*--:38sdddddplx1-*&%%*-:-=-&&*-->151<:>>><11",
"pddds9%%&=:11pkkpkuu7*&*389ddddddlx7-=-><>>--=*&%&:>135<>:-:>><<",
"ddddr%$&&&**:7idkkkdpi%%88s9ddkdklxi53311<>--**&%%:5635<>-=--:>-",
"uuui*O%****=>%@#$=>27w7*889sddllkkp76886633511:--&&6q31<>-==-->:",
"uuu<+O%;-*->1&%#$$%%%&*7rrrsddkllkq31388q66q6666666q631>:=***=>>",
"uu7#+O*-::>11-%%&&&&&*368f9998wukr6351386806q68666tq631>>=*&*>6q",
"w9*$@O=>><111>&&****=1888e8e8883536651>56q666q6q6qtq851>:=*&*6qq",
"9=%$@O=<115351*-*---168888886<=><50651>:166q6666qtqqq5<>>=*-0t0q",
"<*&$@O-1155535:---:18888886=$$&=:106511::>6qq6qqeeeeq6<:-=>0qttq",
"=*&$$O>3333333>:>,36888882OXO@%*:<6651<>:-:666qtureqtt1:-100q000",
"-=*%$#;<3336661>158888wuu9<$@$$*->3651<>:---6qruyrrewt6:11:*#@O-",
">-==*-8*$-336331388ruuuuee92%%*==:16311>::-:26636336336%o.XXo+>3",
"<>--=698&O@*>366wuuduurr8wr82*==-><33355366635>1111155q&O++@%563",
"<>:-<rwe8&@$%*>dsdduurrqe8wee4=::<131115363>1511115353q:$%%-6063",
"<<:;9rrrw8&%&==9ddsurreeqqqwwr7>1138515131-->55513536q85=->q8663",
"<<<7dsdrrr7===:89uurer888qweerw915881115<&*-:>535336666653qq6635",
"<<4dkddssrr8=-<889rrw8888ewqwerr96qt6<<:#$%*--1366066606ttq66635",
"<<ikkddddurr7<<889ewe88e98wwqrrrqqqww1-++@%%*-:3666533<3gutq6355",
":4lllkkkddduu7188f898888e8weq8q8ey9qw>+oO+@$&*=1q655>--6fghfy051",
"s899999iirirur78889e98rrwewwqq8uru666rr93,=%&&=:q35>:-13yggfgfyq",
"8833<<<::====-71<<<3dprrrre8qwrruu633udpuuuuww930051>>11qffffaay",
"8861<<<:-===7wr<<<<9kdsrurrrqrryus6<5puusuuuyuespq65:-:<6yfayaya",
"88611<>::<7wre91<14ddd9drrurewuyusw>>psussuyeysvpt0>==-><yyayyyy",
"8881<<>17w8erwr1<1udds9surrweruysup:>uuuyeyeyrlvat5*&==-:tyyyafg",
"8881139qre98rr8319ddrss9ruwqwryuudd>:uuyyyyrrsvvu0&##*==-70affhh",
"868138q888e888836ssurs99ywqweruupdd2:ryureyerxvvr*###&#&*x,*3yhh",
"ewr,.O=388888888rdf9887<&16wyruudkk7:weeeettszxv>@###&**2nl-=->6",
"rru<X .XO&<38889r982=*$o.#=>6ruuukkp:weeeetuglp=>##&&***pnxu::><",
"ruw<@XoOoOOO%=<84<<=&%OXo+=-:>5wpklk2qwqteeyu,$*0****==-zzzzq>11",
"rr9<&OOOO$$$$%&31<==*%ooo+&:::>>56pk7ttqqqe3:=%:t<*==--7czzzg615",
"wr6:*@@@#%%%&&&<5<:-&@o+@@#:><11553620511<01>=*1tq--::>uzzjhgp00",
"rr1-&#%%%%&***%-5<:-%+@@#%&*<115335@X<11::001>*0yt1>>><hjhhjaayq",
"ew<-&$&&**---*&&51>=+@#%%&*->5336>+.o@1>>-0t5>-tyy0<<<6jhjgaaaat",
"w8<=%#*=--:--=&&>5:#@$%&*=-:>366=X.o++*<>-0tt51ttyt515uhgaaaagxu",
"e6>=$@=:>>>>-=&&-5%#%&**-:><133$.oo+@#%-:-0tqt0tatyt36ghgaajznby",
"w1>*$O&><<<:-=*%%-&**-::<153609;$++@#%&=>-5qtw2taytyqtgfgznbbbjt",
"95:*#O+111>:=%@+:65111555660qquzkp4-*&=-:-5ty0&7agaatyjcbnbcbzyt",
"3631>=$21>-*#+@>366355556606q6tkkhkkpw1<1<1tp=#*ygjzzznnbbcccjqq",
"155111170>-&#%<1566006636688868khggkghgrrqqk>*&#,gjzluccbcczza00",
"111111<6rw1**<11555660666888663uguuguuauauk2:*&##ujzu1jxczjjjq60",
"><111115www3-::>>><>11155566635wgguayuuuwtq<-*&#+=kx2-qzjjjja666",
"::>>>1<1qww&+-:-->>>><>1<<5q3516ruyuyttq0w1>-*%#++wx=*-hjjjhq556",
">--:><<10q7+X%-:>>>>><1>1<:80511yyyyy666065>-*&#++@i@#%7hhgg5555",
"pq>:::<17q-oo+*>>>><1>111>-<qq5>tttq336qq01>-*%#+o.%@+@%fggt1115",
"kpi7:-:163#+++@-><<<11115>--6qq56q336qtq061>-*%#+o.*1%o+7aa5<111",
"kpuuw7>>3:#++@#%>>1<<1151>-*:q0q0qqqqqqq511<-*%#+o.=35:@%at<<<1<"
};
