/* XPM */
static char *_e00f688701d493c87878597a34f497a[] = {
/* columns rows colors chars-per-pixel */
"64 64 233 2 ",
"   c #060706",
".  c #070807",
"X  c #090906",
"o  c #0B0B0B",
"O  c #130E0A",
"+  c #140D08",
"@  c #0F100D",
"#  c #12110E",
"$  c #1B130D",
"%  c #0D0F11",
"&  c #0F1111",
"*  c #131413",
"=  c #1B1511",
"-  c #171A15",
";  c #1C1A16",
":  c #15161A",
">  c #16191C",
",  c #1A1B1D",
"<  c #25190E",
"1  c #231A13",
"2  c #271C14",
"3  c #23221C",
"4  c #2C251D",
"5  c #352519",
"6  c #171C21",
"7  c #1B1D21",
"8  c #09133C",
"9  c #1D2124",
"0  c #232422",
"q  c #272827",
"w  c #2C2D2C",
"e  c #332C22",
"r  c #372E26",
"t  c #2E3029",
"y  c #33322D",
"u  c #3C3329",
"i  c #282D34",
"p  c #2E3031",
"a  c #2E323A",
"s  c #353533",
"d  c #3C3B34",
"f  c #343738",
"g  c #3C3D3B",
"h  c #472B1B",
"j  c #562D19",
"k  c #57321D",
"l  c #4D2E23",
"z  c #493728",
"x  c #573827",
"c  c #5A3C2B",
"v  c #453E37",
"b  c #553F31",
"n  c #633C28",
"m  c #5D422F",
"M  c #44443B",
"N  c #48473C",
"B  c #5A4435",
"V  c #65422B",
"C  c #664836",
"Z  c #6B4B34",
"A  c #644C3A",
"S  c #744C37",
"D  c #69513D",
"F  c #74523C",
"G  c #7B553D",
"H  c #3A3D41",
"J  c #413F40",
"K  c #3E4344",
"L  c #434443",
"P  c #474847",
"I  c #4C4B44",
"U  c #4C4D4A",
"Y  c #524E49",
"T  c #53534C",
"R  c #59564A",
"E  c #4D5050",
"W  c #535453",
"Q  c #585856",
"!  c #5C5B54",
"~  c #5D5E5A",
"^  c #684E40",
"/  c #695545",
"(  c #735542",
")  c #785A46",
"_  c #7C5B44",
"`  c #625D54",
"'  c #655D58",
"]  c #5F6057",
"[  c #5E605A",
"{  c #656357",
"}  c #62635C",
"|  c #6A655C",
" . c #6C6B5D",
".. c #7A6652",
"X. c #736B5C",
"o. c #585E63",
"O. c #656661",
"+. c #676862",
"@. c #6A6B64",
"#. c #6B6C68",
"$. c #756D64",
"%. c #6F7067",
"&. c #6F706A",
"*. c #767364",
"=. c #73736C",
"-. c #7A766B",
";. c #7D7A6D",
":. c #676D71",
">. c #6E7171",
",. c #6E757A",
"<. c #727574",
"1. c #757875",
"2. c #7B7B74",
"3. c #757678",
"4. c #76797A",
"5. c #7B7C7B",
"6. c #83553E",
"7. c #835D45",
"8. c #865C46",
"9. c #915E48",
"0. c #84634B",
"q. c #8A654A",
"w. c #8B654C",
"e. c #91664D",
"r. c #93694E",
"t. c #866853",
"y. c #8D6B53",
"u. c #8C6E5A",
"i. c #936B53",
"p. c #956B55",
"a. c #9A6D54",
"s. c #936E59",
"d. c #8E735A",
"f. c #957156",
"g. c #95725B",
"h. c #9B735B",
"j. c #9B7459",
"k. c #A1755D",
"l. c #85796A",
"z. c #927462",
"x. c #9C7B63",
"c. c #987A66",
"v. c #817D74",
"b. c #A27C63",
"n. c #A57D67",
"m. c #7E817D",
"M. c #9E816B",
"N. c #83827C",
"B. c #8A8679",
"V. c #95887A",
"C. c #A48166",
"Z. c #A3836B",
"A. c #A9846A",
"S. c #A68772",
"D. c #B28B72",
"F. c #7B7E82",
"G. c #4F5BB2",
"H. c #7E8182",
"J. c #7C838B",
"K. c #838584",
"L. c #868787",
"P. c #8B8A84",
"I. c #8B8D8B",
"U. c #968C85",
"Y. c #8E908D",
"T. c #989386",
"R. c #9C9485",
"E. c #93938D",
"W. c #9D998C",
"Q. c #898E92",
"!. c #8E9294",
"~. c #949593",
"^. c #969896",
"/. c #9B9B94",
"(. c #9C9D9A",
"). c #AB9181",
"_. c #AF9280",
"`. c #A19A87",
"'. c #A39C8B",
"]. c #A19E95",
"[. c #9FA09C",
"{. c #A6A18E",
"}. c #A4A29D",
"|. c #A8A399",
" X c #B6A496",
".X c #989DA1",
"XX c #9BA1A1",
"oX c #A5A5A3",
"OX c #AAA6A2",
"+X c #ADABA5",
"@X c #ABACAB",
"#X c #B1ABA5",
"$X c #B1AEAA",
"%X c #B4B1AD",
"&X c #BAB6AE",
"*X c #AEAEB0",
"=X c #B7B6B3",
"-X c #BDB9B6",
";X c #BEBCB9",
":X c #C8AC9A",
">X c #C2BDB4",
",X c #C2BEBB",
"<X c #BEC0BE",
"1X c #C5C1BD",
"2X c #C8C3BD",
"3X c #D4C7BF",
"4X c #B7C3D3",
"5X c #C4C4C2",
"6X c #C9C5C2",
"7X c #C6C8C5",
"8X c #CDC9C5",
"9X c #CDCCCA",
"0X c #D4CBC4",
"qX c #D1CECA",
"wX c #D5D2CD",
"eX c #D9D3CE",
"rX c #CBCDD2",
"tX c #D4D5D3",
"yX c #DAD6D2",
"uX c #DDDAD5",
"iX c #D7DADA",
"pX c #DDDCDA",
"aX c #E0DCD7",
"sX c #E1DDDA",
"dX c #E4E1DE",
"fX c #CFDDE6",
"gX c #E5E5E2",
"hX c #E9E5E2",
"jX c #ECEBE9",
"kX c #EEF0EE",
"lX c #F0F2EF",
"zX c #EFF1F0",
"xX c #F2F2F1",
/* pixels */
"# * # * * * * * * * * * * * - * * * = * * * * # * @ # @ O & o # o @ O o & & o ! X.*.*.X. . .{ { ! ! R T I T U T U U E P L U P L ",
"o # @ @ * @ # * * * * # * = * * * * * * # * * * # * # # * o * o * o & o o o N V.'.`.`.`.'.`.R.`.`.`.'.'.'.`.W.`.'.{.{.'.W.'.`.W.",
"o @ # * & * * * * * # * * * $ * * * * * * # * # # # o * O & & o & & O & + 4 V.{.`.`.`.`.`.'.R.`.`.`.R.'.{.{.'.{.{.{.{.'.|.{.'.{.",
"# # o o O & O & # # * # # # * # * O & o # # @ # @ @ @ o & O o O o o & o @ m.R.R.`.`.`.`.`.`.R.`.R.R.`.`.R.{.W.'.{.'.W.{.'.{.'.'.",
"o o o o o o o o o o o % @ @ o @ % o O % O o o O o o o o o o o o o o o @ { {.D.{.'.'.{.'.`.'.`.'.'.{.{.{.{.{.{.{.'.{.{.{.{.{.{.{.",
"X X     o .     o o . o X X X o   o o . X X . . X X X X X X . o o . . . d N T R R ' { | X.@.X.$.-.-.-.;.;.l.;.*.N.B.B.B.V.U.V.T.",
"X     o             . o       o o   . o X       X     .   . . . . . . @ @ & & - - * o * o o & % o o # @ % % * * @ o * % % % * * ",
"X                                     . . . .   X .       X . . o - R R R R R I U I M M M g v d s s y 0 0 0 0 9 9 3 , , > > - - ",
"                                                      o * = O % - 4 ! { ` ` { ' { | { | | | | |  .| @.' |  .| { | | } | | | | } ",
"              .                                   % = ; 1 ; $ $ $ # $ ; e u = @ o * & & & : : : : : : 6 : : > : - > - > : * * : ",
"% o o . . . . . o   o   o .   . X o X .       O 1 0 2 = = * $ * - # + o - r z ; : : : : 6 6 6 6 6 7 6 6 6 6 6 9 6 6 6 > 6 6 6 > ",
"o o o o o o o o o o o o o o % . o o o o o o o 0 e 1 1 + * $ $ O $ $ $ + $ 4 r M P q 7 q i i a H a a a a H a a a i i i i i 9 i q ",
"o o . . . . . . X             . . . . . .   . e 2 1 + = = O O O $ = $ $ $ 5 z u Y OX*X.X.X.X.X!.^.!.Q.Q.Q.J.J.J.F.F.F.F.,.:.:.:.",
"% @ o . o o o X o X X X       o . . . . . . 2 e 2 = O O $ + O O $ 2 1 + = 1 5 v r Y =XjXjXzXxXxXxXxXxXzXxXlXxXlXzXkXkXzXkXkXkXkX",
"d f t g d s y w s y e w q q q 0 0 3 3 - - ; e 5 1 + O O + + + X o 1 $ $ $ < 1 5 e r ' ].].].OX#X+X#X*X@X+X+X|.OXoXoX|.OX|.|.XX}.",
"P I U T Y U Y Y U I I Y I N I L N N M d v u e < $ 1 $ 1 $ $ + + $ < 2 < 5 5 2 2 = 4 f l.].].'.].].].'./.W.'././.W./././.{.W./.W.",
"t y p s d d d d d d d d M M d M d d d y d t < $ 2 5 5 l b 5 2 h l c c c C S C x 5 0 e N ! Q Q ' { | +.$.$.$.$.$.=.-.l.v.v.v.v.v.",
"9 y t w t q q 0 0 9 0 3 3 , 3 - , - - @ @ 3 < 5 Z D ) 0.t.( ( ( _ 0.8.F G 7._ G c 2 q f v w w w w p w p p w P a s f f s p s p p ",
"y ] ] [ [ ] [ [ ! ! ~ [ ! ! W W W T I g t < 4 F 0.0.0.s.z.s.u.s.y.r.y.w.w.w.q.8._ x 2 s v : * : : : : : : : > > : : : : , : , : ",
", ! ] ] [ [ [ [ ~ [ [ [ ] ] ] ! ] ! W R d 3 B _ 0.8.w.y.s.z.z.s.p.w.e.e.e.y.w.w.8.S h e v , , > 6 , 7 6 7 , 6 6 7 7 7 , 7 : , 7 ",
"9 W [ [ ] [ [ [ [ [ [ [ [ ] [ ] ] ! ] R u 5 / y.8.0.w.w.s.s.g.s.s.e.w.e.i.w.r.w.t._ b u ` 5.3.3.3.>.:.Q E K K H H H a H a a f a ",
"@ K [ [ [ [ [ [ [ [ [ [ ] ] ] [ ] ] ] ! r z _ d.y.w.y.y.s.s.s.s.y.y.e.e.e.i.i.w.y.0.B h $.aXaXaXsXpXdXdXgXgXgXgXgXhXhXhXhXdXgXhX",
"* d [ [ [ [ [ [ [ } [ [ [ [ [ +.[ [ ] ] 5 M u.z.i.t.y.s.c.x.h.g.p.p.e.p.a.p.i.i.y.y.( z I +.#.#.=.=.-.-.4.2.2.5.5.5.v.L.P.N.P.P.",
"!.p [ +.[ +.[ [ } [ +.+.[ [ [  .[ [ ] ` e B c.z.u.8.w.s.s.s.g.f.p.y.y.p.s.s.y.y.i.g.t.v b ' ' Q ' Q Q ! Q ! T T U P Y Y P L J J ",
"m.9 [ } [ +.[ [ +.[ +.[ [ [ +.[ [ [ O.[ u D c.u./ c z x C G q.q.8.( S b b C C 0.s.z.z.v v 3 : : 6 : : 6 : > 6 6 > > > 6 , , 7 , ",
"i & ] +.+.[ [ +.[ +.[ +.+.[ [ +. .O.O.[ z R c.) m c z h h j Z S Z k l h h l c C t.c.u.b v 9 q i 9 q q 9 0 9 9 7 7 7 7 7 6 7 7 7 ",
"J.o.E +.+.+.O.O.+.+.+.+.[ +.+.+.+.} } [ R ^ c.u.F n m 5 h j n 8.7.Z n h l C F 0.t.c.l.b U.dXpXpXpXfXfXpXiXpXiXiXiXtXtXtXtXwXwXrX",
"[ K W +.O.+.@.O.[ +.+.+.+.+.+.+.+.+.U # ) ) c.t.n C r $ 5 h n k.p.) h h 2 v V Z p.c.c.b C $.K J P P P E W W W Q W W Q Q O.<.5.K.",
"XXkXm.@.O.O.+.O.+.+.+.+.+.+.+.+.+.@.#.4.z.u.n.t.F F C l h l 6.9.e.G h l h A S S 9.z.n.^ 8./ 7 7 7 9 9 7 7 7 7 7 0 9 7 9 7 6 7 7 ",
"@.W [ @.@.+.+.O.+.+.+.+.+.+.+.@.@.@.+X8Xu.c.c.p.0.F n x c ) a.a.r.9.D k x Z _ 8.p.z.).c.k.0XpXuXyXrXrX9XrX9X6X5X5X<X<X<X<X<X=X=X",
"@.+.@.&.+.O.@.@.+.+.@.+.@.@.@.+.@.@.&.$._ c.S.a.a.s.y.0.w.p.k.n.a.e.a.r.8.8.e.e.z.k.).n.( ' L E W Q Q ~ O.>.F.K.I.Q.~.^.(.(..X.X",
"+.+.+.+.@.@.@.O.@.+.@.@.@.@.%.+.O.} @.$.8.c.S.z.h.b.x.a.p.a.n.n.a.r.a.a.a.a.g.b.n.n.S.n.n ) H w 9 6 : : : : : 6 > : 6 6 6 , 6 6 ",
"+.@.@.@.@.@.@.@.@.@.@.@.@.@.&.[ : * : u g.z.M.x.a.k.k.a.r.k.k.k.k.r.e.a.k.k.b.b.k.x.c.y.9.T.!.Q.v.W P L L J J J H g J ' 3.F.<.E ",
"@.@.+.+.@.@.&.@.@.&.@.@.%.@.O.U H +.(.=X#Xd.M.j.a.a.r.q.r.6.q.q.G 8.9.e.p.a.a.a.h.b.c.a.n.I.Q.L.J.F.4.O.U w L w : : % : : : : % ",
"+.@.@.@.@.:.@.@.&.@.@.%.@.&.[ [ 2.5.4.5.N.V.M.g.k.r.r.e.6.k S 6.Z k 8.r.a.a.a.h.a.x.z.x.W.;X;X;X,X5X<X=XoX>.Y Q W Y Y 3.~.oX*XoX",
"+.%.%.@.+.&.&.@.&.%.%.%.%.&.2.^.@X;X1X6X6X=Xc.C.j.r.e.e.8.n V n n c S w.s.f.a.a.f.g.U.=X*X.XF.O.L Q f H Q <.I./.]..X!.v.o.Q Q E ",
"+.@.@.+. .@.@.%.%.%.@.&.%.&.=.&.=.=.=.<.<. .l.d.j.f.G Z V m c h k x m Z 7.f.i.i.s.h.R.].Y.&.W W W W W W 5.>.>.>.>.>.$.>.>.>.>.>.",
"} ] { { { { +.{ @.%.%.%.&.&.&.&.&.=.=.=.=.=.z.d.f.r.Z F 6.S S S Z Z F G V _ i.y.g.x.;.3.1.<.3.<.3.,.<.<.<.>.<.>.>.<.>.>.>.>.>.>.",
"R ] {  . . . .@.@.%.%.&.&.&.=.>.=.=.=.=.;.=.*.d.y.q.m m n k k k k n V V V _ q.t.f.c.-.1.1.1.3.<.,.<.<.<.<.<.<.>.>.>.>.>.>.>.:.>.",
". @ - M  .%.X. .@.%.&.=.=.=.=.=.=.=.=.<.*.-.*.t.y.7.G q.r.e.6.6.6.8.q.q.Z _ q.q.s.X.4.1.4.,.3.3.3.3.1.<.<.,.,.<.>.<.<.<.>.>.>.>.",
"- - 3 @ N *.*. .@.=.=.>.=.<.=.=.1.=.1.2.1.;.%./ .._ G C.q.7.V n k S 9.9.F F ......X.5.5.4.4.2.4.3.3.3.v.3.>.3.v.3.3.>.3.>.>.>.>.",
" . . .d 3  .*.*.&.;.1.;.=.m.;.;.4.2.2.2.2.m.N.` / ) _ q.q.G V k n S 8._ F D _ G ) 5.5.m.5.5.5.5.3.3.F.v.F.3.F.3.3.3.>.F.F.>.3.3.",
"{ { N N $  .m. .&.1.;.;.m.*.m.;.2.m.2.m.m.N.N.*.D / ) t.f.q.G q.7._ _ Z B D ( ) X.P.N.m.F.K.v.F.F.F.F.F.3.3.F.5.v.F.3.v.F.3.3.3.",
"N  .N R ; { *.m.;.2.m.m.m.m.m.m.N.N.N.N.N.N.N.V.) A D ) q.7._ _ 7.t.) A B A / / Z.P.L.K.K.K.L.K.N.K.K.F.K.F.F.F.F.F.F.F.5.F.v.F.",
"m m...{ M X.m.m.m.m.N.m.N.m.m.P.N.H.P.B.P.P.P.V.z.D B / _ ) F m Z Z A C B / A u.S.I.I.L.L.L.L.L.L.L.L.K.L.J.K.K.K.J.K.K.F.K.F.K.",
"t R m.m.R m.m.m.m.N.B.B.P.B.P.B.Y.P.P.P.P.P.Y.V.g.t.) A D Z B B b c m b B D t.x.n.Y.Y.I.I.I.I.L.I.L.L.I.L.I.Q.L.L.L.L.L.L.L.L.L.",
"N R R m.A m.M.m.N.P.B.P.P.Y.P.P.Y.P.Y.Y.Y.Y.Y.U.M.q.q.../ A B z z z z C _ e.h.h.S.~.E.Y.E.I.I.I.Y.I.I.I.I.I.Q.Q.I.I.I.Q.I.L.L.Q.",
"{  .N N R m.M.m.B.P.Y.P.P.Y.Y.Y.E.E.E.E.~.W./.V.M.f.0.t.0._ G D Z F 7.y.s.g.j.h.S.~.~.E.~.~.~.Y.!.Y.!.~.!.U.Q.U.Q.Q.I.I.!.!.I.!.",
"d t t t - N m.B.V.`.J.`./.J.`./.W.~.~.~./././.V.Z.C.q._ t.q.0.G 0.w.i.f.j.j.j.C.n.~.~.~.~.~.~.~.~.~.~.~.~.~.!.~.!.~.~.!.!.~.!.~.",
"- - 4 d @ - I m.J.E.E.E.E./.^.E.~.~./././././.S.Z.C.j._ 0.t.q.q.q.f.f.j.h.j.j.h.S.].(.(.~.(.~.^.~.~.~.~.^.~.~.~.~.~.~.~.~.^.~.^.",
"N R m.- t m.V.m.{.E./.E./.^./.^./././././.(.B.M.M.C.Z.d._ _ 0.0.q.i.g.j.j.j.k.k.n.S.U.U.OX}.}.(.}.Y.U..X.X(..X(.(.(.^..X(.^.^..X",
"{ m.M - m./.{./.^.E././././././.}.(.}.}.].T.f.M.C.C.C.C.0.) G 7.w.a.f.f.g.j.j.j.x.b.z.s.U.8XeXqXqX%X$X2XwXwXeX5X;X[.^.%XoX^.(..X",
"R 3 @ R B.V./.B.E././././.{./.XX[.+X=X#Xc.u.C.C.C.C.C.C.f._ 7.0.w.y.i.i.i.f.j.g.h.f.t.q.U.,X$X1X8XiXiXiX9X8X0XqXwX2X1XqX9X6X6X5X",
"V.m.m.m.{.V.{.B././.[.[.[.[.XX+X&X1X7X'.x.g.C.A.C.C.C.k.M.y.7.0.q.q.w.r.a.f.f.f.s.w.0.0.#X#X$X$X$X,X8X<X.X.X}.$X;X,X,XqXiXiXuXuX",
"V.{.B.E./.B.XX^././.{.{.{.#X<X<X,X6X9X>XS.M.A.A.C.C.C.C.k.j.0.0.7.7.0.q.i.r.r.i.s.) u.B.$X$X$X$X].OX%X$X%X3.7 F.;X&X%X6XtXuXiXyX",
"{.V.XX{.{.XX{.{.{.[.+X<X7X<X<X<X6X8X9X8X2X{.D.n.A.C.C.C.C.k.s.7.G G 8.q.i.y.r.i.y.) V.-X>X=X=XOXOX}.OX#X$X=X>X}.N.R ` U.~.^.(.(.",
"/.W././.].[.{.#X<X<X2X2X2X2X2X9X9XqXrXeX9XeXeX XD.D.D.n.n.n.n.e.G ) _ w.e.i.y.s.u.}.;X=X$X=X$XOXOX(.$X,X=X>X,X,X6XOX} B .X4X4X4X",
"/.[.[.|.%X1XqX3XqXqXqX3XqX9XqXtXwXeXeXeXeXeXwXaXeX:X_.D.D.n.D.n.8.F ) u.c.T.].].@X$X*X$X$X$X$X$X*X>X,X-X,X=X>X=X-X,X8XOX.XfXfXfX",
"[.[.<XqXtXwXeXeXtXtXwXwXwXwXwXwXyXuXuXuXiXaXyXwXeXaXsXaX0X0X3X3X0X-X|.}.OXoX].}.OXOX$X=X,X>X>X1X,X,X;X-X,X>X=X,X-X=X>X,X6X;XG.8 ",
"].<XdXsXaXaXaXaXaXaXaXaXaXuXuXuXuXsXaXsXsXiXaXaXaXeX6X0X0XeX9X0XqX6X5X$XOX}.}.OX$X,X8X6X6X6X5X5X6X,X,X;X-X=X>X,X-X,X-X,X;X8X8XG.",
"+XpXgXdXdXdXhXhXdXdXdXdXdXdXaXaXsXsXdXsXsXuXsXsXaXaXeXaXyXyXeXeX0XeXqXqX8X9X9X9X0XqX9X9X6X6X6X6X6X,X6X,X,X,X,X,X,X,X,X,X<X9X9XrX",
"yXgXgXjXhXhXhXhXjXdXdXjXgXdXdXdXdXsXhXsXsXsXsXsXaXaXaXaXuXuXuXyXyXeXeXeXeXwXeXqXqXqX0X9X9X9X3X6X3X,X3X6X,X,X,X,X,X1X1X,X8X6X6X9X",
"pXpXdXjXhXhXhXhXjXhXhXdXdXgXgXdXhXhXsXhXdXdXsXsXdXsXsXaXsXuXuXsXaXuXaXeXeXwXeXwXqXrXqXqXqX0X3X9X6X6X,X3X6X,X,X1X,X1X,X1X8X5X6X9X",
"dXaXdXgXhXhXdXhXhXjXhXdXjXhXjXgXhXhXhXdXhXhXhXsXhXsXdXsXsXsXsXuXaXiXaXiXiXeXeXwXeXwXwXqXqXqXrX0XrX3X6X6X8X1X,X1X,X,X2X6X6X5X5X6X"
};
