/* XPM */
static char *_497b56ef52441e6fbf81af4aafa55dc[] = {
/* columns rows colors chars-per-pixel */
"64 64 173 2 ",
"   c #5F5E5E",
".  c #605F5F",
"X  c #626161",
"o  c #636262",
"O  c #686767",
"+  c #6A6969",
"@  c #6C6B6B",
"#  c #6D6D6D",
"$  c #717070",
"%  c #747373",
"&  c #777777",
"*  c #787777",
"=  c #7A7979",
"-  c gray48",
";  c #7B7A7A",
":  c #7D7C7C",
">  c #FBB900",
",  c #FBBA13",
"<  c #FBBA14",
"1  c #FBBA15",
"2  c #FBBA16",
"3  c #FBBA17",
"4  c #FBBA18",
"5  c #FBBA19",
"6  c #FBBA1A",
"7  c #FBBA1B",
"8  c #FBBA1C",
"9  c #FBBA1D",
"0  c #FBBA1E",
"q  c #FBBB21",
"w  c #FBBD37",
"e  c #FBBE3F",
"r  c #FBBE40",
"t  c #FBBE41",
"y  c #FBBE42",
"u  c #FBC04B",
"i  c #FBC04E",
"p  c #FBC050",
"a  c #FBC051",
"s  c #FBC153",
"d  c #FBC154",
"f  c #FBC155",
"g  c #FBC25B",
"h  c #FCC463",
"j  c #FCC464",
"k  c #FCC465",
"l  c #FCC466",
"z  c #FCC566",
"x  c #FCC669",
"c  c #FCC76C",
"v  c #FCC770",
"b  c #FCC771",
"n  c #FCC976",
"m  c #FCC979",
"M  c #818080",
"N  c #838282",
"B  c #878686",
"V  c #888888",
"C  c #898888",
"Z  c #898989",
"A  c #8C8B8B",
"S  c #8E8E8E",
"D  c #8F8E8E",
"F  c #929292",
"G  c gray61",
"H  c #A2A2A2",
"J  c #A8A7A7",
"K  c #A9A8A8",
"L  c #AEADAD",
"P  c #AFAEAE",
"I  c gray71",
"U  c #B6B6B6",
"Y  c #B7B7B7",
"T  c #B9B8B8",
"R  c #B9B9B9",
"E  c #BBBBBB",
"W  c #BDBCBC",
"Q  c #FCCD87",
"!  c #FCCF8C",
"~  c #FCD192",
"^  c #FCD295",
"/  c #FCD49B",
"(  c #FDD6A1",
")  c #FDD7A3",
"_  c #FDD9AA",
"`  c #FDDAAC",
"'  c #FDDAAE",
"]  c #FDDBAF",
"[  c #FDDDB3",
"{  c #FDDDB4",
"}  c #FDDEB6",
"|  c #FDDFB8",
" . c #FDE1BC",
".. c gray76",
"X. c gray77",
"o. c gray78",
"O. c #C8C7C7",
"+. c gray79",
"@. c #CBCBCB",
"#. c #CDCCCC",
"$. c #D1D0D0",
"%. c gray82",
"&. c #D2D2D2",
"*. c gray83",
"=. c #D7D7D7",
"-. c #D8D7D7",
";. c #DAD9D9",
":. c #DADADA",
">. c #DCDBDB",
",. c gainsboro",
"<. c #DDDCDC",
"1. c gray87",
"2. c #FDE2C1",
"3. c #FDE4C6",
"4. c #FDE5C7",
"5. c #FDE6CA",
"6. c #FDE7CC",
"7. c #FEE8CD",
"8. c #FEE9CF",
"9. c #FEE9D0",
"0. c #FEE9D1",
"q. c #FEEAD1",
"w. c #FEEAD2",
"e. c #FEEBD4",
"r. c #FEEBD6",
"t. c #FEECD6",
"y. c #FEF0DE",
"u. c gray88",
"i. c #E1E1E1",
"p. c #E4E4E4",
"a. c gray90",
"s. c #E6E6E6",
"d. c #E7E7E7",
"f. c #E9E9E9",
"g. c #EAEAEA",
"h. c gray92",
"j. c #ECECEC",
"k. c gray93",
"l. c #EFEFEF",
"z. c #FEF2E4",
"x. c #FEF4E8",
"c. c #FEF4E9",
"v. c #FEF5E9",
"b. c #FEF5EA",
"n. c #FEF6EB",
"m. c #FEF6ED",
"M. c #FEF7EE",
"N. c #F1F1F1",
"B. c #F4F4F4",
"V. c gray96",
"C. c #F6F5F5",
"Z. c #F6F6F6",
"A. c gray97",
"S. c #FFF8F1",
"D. c #FFF8F2",
"F. c #FFF9F2",
"G. c #FFF9F3",
"H. c #FFFAF4",
"J. c #FFFAF5",
"K. c #FFFBF6",
"L. c #FFFBF7",
"P. c #F8F8F8",
"I. c #F9F9F9",
"U. c gray98",
"Y. c #FBFBFB",
"T. c #FFFCF8",
"R. c #FFFCF9",
"E. c gray99",
"W. c #FDFDFD",
"Q. c #FEFEFE",
"!. c #FFFEFE",
"~. c #FFFFFE",
"^. c white",
/* pixels */
"^.^.^.^.^.^.^.^.^.^.^.^.^.^.^.^.^.^.^.^.^.^.^.^.^.^.^.^.^.^.^.^.^.^.^.^.^.^.^.^.^.^.^.^.^.^.^.^.^.^.^.^.^.^.^.^.^.^.^.^.^.^.^.^.",
"^.^.^.^.^.^.^.^.^.^.^.^.^.^.^.^.^.^.^.^.^.^.^.^.^.^.^.^.^.^.^.^.^.^.^.^.^.^.^.^.^.^.^.^.^.^.^.^.^.^.^.^.^.^.^.^.^.^.^.^.^.^.^.^.",
"^.^.^.^.^.^.^.^.^.^.^.^.^.^.^.^.^.^.^.^.^.^.^.^.^.^.^.^.^.^.^.^.^.^.^.^.^.^.^.^.^.^.^.^.^.^.^.^.^.^.^.^.^.^.^.^.^.^.^.^.^.^.^.^.",
"^.^.^.^.^.^.^.^.^.^.^.^.^.^.^.^.^.^.^.^.^.^.^.^.^.^.^.^.^.^.^.K.{ ' M.^.^.^.^.^.^.^.^.^.^.^.^.^.^.^.^.^.^.^.^.^.^.^.^.^.^.^.^.^.",
"^.^.^.^.^.^.^.^.^.^.^.^.^.^.^.^.^.^.^.^.^.^.^.^.^.^.^.^.^.^.J.v > > i b.^.^.^.^.^.^.^.^.^.^.^.^.^.^.^.^.^.^.^.^.^.^.^.^.^.^.^.^.",
"^.^.^.^.^.^.^.^.^.^.^.^.^.^.^.^.^.^.^.^.^.^.^.^.^.^.^.^.^.J.v > > > > i b.^.^.^.^.^.^.^.^.^.^.^.^.^.^.^.^.^.^.^.^.^.^.^.^.^.^.^.",
"^.^.^.^.^.^.^.^.^.^.^.^.^.^.^.^.^.^.^.^.^.^.^.^.^.^.^.^.J.v > > > > > >  .^.^.^.^.^.^.^.^.^.^.^.^.^.^.^.^.^.^.^.^.^.^.^.^.^.^.^.",
"^.^.^.^.^.^.^.^.^.^.^.^.^.^.^.^.^.^.^.^.^.^.^.^.^.^.^.J.v > > > > > > [ ^.^.^.^.^.^.^.^.^.^.^.^.^.^.^.^.^.^.^.^.^.^.^.^.^.^.^.^.",
"^.^.^.^.^.^.^.^.^.^.^.^.^.^.^.^.^.^.^.^.^.^.^.^.^.^.J.v > > > > > > [ ^.^.^.^.^.^.^.^.^.^.^.^.^.^.^.^.^.^.^.^.^.^.^.^.^.^.^.^.^.",
"^.^.^.^.^.^.^.^.^.^.^.^.^.^.^.^.^.^.^.^.^.^.^.^.^.H.v > > > > > > [ ^.^.^.^.^.^.!.^.^.^.^.^.^.^.^.^.^.^.^.^.^.^.^.^.^.^.^.^.^.^.",
"^.^.^.^.^.^.^.^.^.^.^.^.^.^.^.^.^.^.^.^.^.^.^.^.H.v > > > > > > [ ^.^.^.^.^.^.x.c v.^.^.^.^.^.^.^.^.^.^.^.^.^.^.^.^.^.^.^.^.^.^.",
"^.^.^.^.^.^.^.^.^.^.^.^.^.^.^.^.^.^.^.^.^.^.^.H.b > > > > > > [ ^.^.^.^.^.^.x.u > p v.^.^.^.^.^.^.^.^.^.^.^.^.^.^.^.^.^.^.^.^.^.",
"^.^.^.^.^.^.^.^.^.^.^.^.^.^.^.^.^.^.^.^.^.^.H.b > > > > > > [ ^.^.^.^.^.^.x.u > > > p v.^.^.^.^.^.^.^.^.^.^.^.^.^.^.^.^.^.^.^.^.",
"^.^.^.^.^.^.^.^.^.^.^.^.^.^.^.^.^.^.^.^.^.H.b > > > > > > [ ^.^.^.^.^.^.x.u > > > > > f R.^.^.^.^.^.^.^.^.^.^.^.^.^.^.^.^.^.^.^.",
"^.^.^.^.^.^.^.^.^.^.^.^.^.^.^.^.^.^.^.^.H.b > > > > > > [ ^.^.^.^.^.^.x.u > > > > > 5 8.^.^.^.^.^.^.^.^.^.^.^.^.^.^.^.^.^.^.^.^.",
"^.^.^.^.^.^.^.^.^.^.^.^.^.^.^.^.^.^.^.H.b > > > > > > [ ^.^.^.^.^.^.x.u > > > > > 4 8.^.^.^.^.^.^.^.^.^.^.^.^.^.^.^.^.^.^.^.^.^.",
"^.^.^.^.^.^.^.^.^.^.^.^.^.^.^.^.^.^.H.b > > > > > > ] ^.^.^.^.^.^.x.u > > > > > 4 8.^.^.^.^.^.^.^.^.^.^.^.^.^.^.^.^.^.^.^.^.^.^.",
"^.^.^.^.^.^.^.^.^.^.^.^.^.^.^.^.^.H.b > > > > > > Q ~.^.^.^.^.^.x.u > > > > > 3 8.^.^.^.^.^.^.e.v.^.^.^.^.^.^.^.^.^.^.^.^.^.^.^.",
"^.^.^.^.^.^.^.^.^.^.^.^.^.^.^.^.H.b > > > > > > > x.^.^.^.^.^.x.u > > > > > 3 8.^.^.^.^.^.^.q.0 a v.^.^.^.^.^.^.^.^.^.^.^.^.^.^.",
"^.^.^.^.^.^.^.^.^.^.^.^.^.^.^.L.b > > > > > > > n ^.^.^.^.^.x.u > > > > > 2 8.^.^.^.^.^.^.q.0 > > a m.^.^.^.^.^.^.^.^.^.^.^.^.^.",
"^.^.^.^.^.^.^.^.^.^.^.^.^.^.^.| > > > > > > > > ] ^.^.^.^.T.s > > > > > 1 8.^.^.^.^.^.^.w.0 > > > > ^ ^.^.^.^.^.^.^.^.^.^.^.^.^.",
"^.^.^.^.^.^.^.^.^.^.^.^.^.^.^.} > > > > > > > > 4.^.^.^.^.e.> > > > > < 8.^.^.^.^.^.^.w.9 > > > > > ~ ^.^.^.^.^.^.^.^.^.^.^.^.^.",
"^.^.^.^.^.^.^.^.^.^.^.^.^.^.^.H.h > > > > > > > 2.^.^.^.^.y.> > > > , 9.^.^.^.^.^.^.w.9 > > > > > e c.^.^.^.^.^.^.^.^.^.^.^.^.^.",
"^.^.^.^.^.^.^.^.^.^.^.^.^.^.^.^.F.h > > > > > > ) ^.^.^.^.^.! > > q 9.^.^.^.^.^.^.w.8 > > > > > e z.^.^.^.^.^.^.^.^.^.^.^.^.^.^.",
"^.^.^.^.^.^.^.^.^.^.^.^.^.^.^.^.^.F.h > > > > > d !.^.^.^.^.!.r.5.n.^.^.^.^.^.^.w.8 > > > > > e z.^.^.^.^.^.^.^.^.^.^.^.^.^.^.^.",
"^.^.^.^.^.^.^.^.^.^.^.^.^.^.^.^.^.^.F.j > > > > > 8.^.^.^.^.^.^.^.^.^.^.^.^.^.w.7 > > > > > r z.^.^.^.^.^.^.^.^.^.^.^.^.^.^.^.^.",
"^.^.^.^.^.^.^.^.^.^.^.^.^.^.^.^.^.^.^.D.j > > > > s G.^.^.^.^.^.^.^.^.^.^.^.w.6 > > > > > r z.^.^.^.^.^.^.^.^.^.^.^.^.^.^.^.^.^.",
"^.^.^.^.^.^.^.^.^.^.^.^.^.^.^.^.^.^.^.^.D.j > > > > m J.^.^.^.^.^.^.^.^.^.0.5 > > > > > r z.^.^.^.^.^.^.^.^.^.^.^.^.^.^.^.^.^.^.",
"^.^.^.^.^.^.^.^.^.^.^.^.^.^.^.^.^.^.^.^.^.D.j > > > > g t.^.^.^.^.^.^.K.` > > > > > > r z.^.^.^.^.^.^.^.^.^.^.^.^.^.^.^.^.^.^.^.",
"^.^.^.^.^.^.^.^.^.^.^.^.^.^.^.^.^.^.^.^.^.^.S.k > > > > > x { 6.7.3./ w > > > > > > t z.^.^.^.^.^.^.^.^.^.^.^.^.^.^.^.^.^.^.^.^.",
"^.^.^.^.^.^.^.^.^.^.^.^.^.^.^.^.^.^.^.^.^.^.^.S.k > > > > > > > > > > > > > > > > t z.^.^.^.^.^.^.^.^.^.^.^.^.^.^.^.^.^.^.^.^.^.",
"^.^.^.^.^.^.^.^.^.^.^.^.^.^.^.^.^.^.^.^.^.^.^.^.S.k > > > > > > > > > > > > > > t z.^.^.^.^.^.^.^.^.^.^.^.^.^.^.^.^.^.^.^.^.^.^.",
"^.^.^.^.^.^.^.^.^.^.^.^.^.^.^.^.^.^.^.^.^.^.^.^.^.S.l > > > > > > > > > > > > t z.^.^.^.^.^.^.^.^.^.^.^.^.^.^.^.^.^.^.^.^.^.^.^.",
"^.^.^.^.^.^.^.^.^.^.^.^.^.^.^.^.^.^.^.^.^.^.^.^.^.^.S.l > > > > > > > > > > y z.^.^.^.^.^.^.^.^.^.^.^.^.^.^.^.^.^.^.^.^.^.^.^.^.",
"^.^.^.^.^.^.^.^.^.^.^.^.^.^.^.^.^.^.^.^.^.^.^.^.^.^.^.S.z > > > > > > > > y z.^.^.^.^.^.^.^.^.^.^.^.^.^.^.^.^.^.^.^.^.^.^.^.^.^.",
"^.^.^.^.^.^.^.^.^.^.^.^.^.^.^.^.^.^.^.^.^.^.^.^.^.^.^.^.S.z > > > > > > y z.^.^.^.^.^.^.^.^.^.^.^.^.^.^.^.^.^.^.^.^.^.^.^.^.^.^.",
"^.^.^.^.^.^.^.^.^.^.^.^.^.^.^.^.^.^.^.^.^.^.^.^.^.^.^.^.^.S.z > > > > y z.^.^.^.^.^.^.^.^.^.^.^.^.^.^.^.^.^.^.^.^.^.^.^.^.^.^.^.",
"^.^.^.^.^.^.^.^.^.^.^.^.^.^.^.^.^.^.^.^.^.^.^.^.^.^.^.^.^.^.S.l > > y z.^.^.^.^.^.^.^.^.^.^.^.^.^.^.^.^.^.^.^.^.^.^.^.^.^.^.^.^.",
"^.^.^.^.^.^.^.^.^.^.^.^.^.^.^.^.^.^.^.^.^.^.^.^.^.^.^.^.^.^.^.F._ ( b.^.^.^.^.^.^.^.^.^.^.^.^.^.^.^.^.^.^.^.^.^.^.^.^.^.^.^.^.^.",
"^.^.^.^.^.^.^.^.^.^.^.^.^.^.^.^.^.^.^.^.^.^.^.^.^.^.^.^.^.^.^.^.^.^.^.^.^.^.^.^.^.^.^.^.^.^.^.^.^.^.^.^.^.^.^.^.^.^.^.^.^.^.^.^.",
"^.^.^.^.^.^.^.^.^.^.^.^.^.^.^.^.^.^.^.^.^.^.^.^.^.^.^.^.^.^.^.^.^.^.^.^.^.^.^.^.^.^.^.^.^.^.^.^.^.^.^.^.^.^.^.^.^.^.^.^.^.^.^.^.",
"^.^.^.^.^.^.^.^.^.^.^.^.^.^.^.^.^.^.^.^.^.^.^.^.^.^.^.^.^.^.^.^.^.^.^.^.^.^.^.^.^.^.^.^.^.^.^.^.^.^.^.^.^.^.^.^.^.^.^.^.^.^.^.^.",
"^.^.^.^.^.^.^.^.^.^.^.^.^.^.^.^.^.^.^.^.^.^.^.^.^.^.^.^.^.^.^.^.^.^.^.^.^.^.^.^.^.^.^.^.^.^.^.^.^.^.^.^.^.^.^.^.^.^.^.^.^.^.^.^.",
"^.^.^.^.^.^.^.^.^.^.^.^.^.^.^.^.^.^.^.^.^.^.^.^.^.^.^.^.^.^.^.^.^.^.^.^.^.^.^.^.^.^.^.^.^.^.^.^.^.^.^.^.^.^.^.^.^.^.^.^.^.^.^.^.",
"^.^.^.^.^.^.^.^.X.Z Z ^.^.^.^.^.^.^.,.Z Z s.^.^.X.Z Z u.^.^.^.^.^.^.h.Z Z :.^.^.O.Z Z A.k.Z Z Z Z Z Z Z Z Z Z Z Z X.^.^.^.^.^.^.",
"^.^.^.^.^.^.^.^.U     ^.^.^.^.^.^.^.*.    i.^.^.U     : P.^.^.^.^.^.d.    &.^.^.E     C.g.                        U ^.^.^.^.^.^.",
"^.^.^.^.^.^.^.^.U     ^.^.^.^.^.^.^.*.    i.^.^.U       P ^.^.^.^.^.d.    &.^.^.E     C.A.%.%.%.%.@.    G %.%.%.%.a.^.^.^.^.^.^.",
"^.^.^.^.^.^.^.^.U     ^.^.^.^.^.^.^.*.    i.^.^.U         >.^.^.^.^.d.    &.^.^.E     C.^.^.^.^.^.A.    T ^.^.^.^.^.^.^.^.^.^.^.",
"^.^.^.^.^.^.^.^.U     ^.^.^.^.^.^.^.*.    i.^.^.U     ;   & Z.^.^.^.d.    &.^.^.E     C.^.^.^.^.^.A.    T ^.^.^.^.^.^.^.^.^.^.^.",
"^.^.^.^.^.^.^.^.U     ^.^.^.^.^.^.^.*.    i.^.^.U     1.    J ^.^.^.d.    &.^.^.E     C.^.^.^.^.^.A.    T ^.^.^.^.^.^.^.^.^.^.^.",
"^.^.^.^.^.^.^.^.U     ^.^.^.^.^.^.^.*.    i.^.^.U     W.I     =.^.^.d.    &.^.^.E     C.^.^.^.^.^.A.    T ^.^.^.^.^.^.^.^.^.^.^.",
"^.^.^.^.^.^.^.^.U     ^.^.^.^.^.^.^.*.    i.^.^.U     W.U.N   $ B.^.d.    &.^.^.E     C.^.^.^.^.^.A.    T ^.^.^.^.^.^.^.^.^.^.^.",
"^.^.^.^.^.^.^.^.U     ^.^.^.^.^.^.^.*.    i.^.^.U     W.^.p..   H ^.d.    &.^.^.E     C.^.^.^.^.^.A.    T ^.^.^.^.^.^.^.^.^.^.^.",
"^.^.^.^.^.^.^.^.U     ^.^.^.^.^.^.^.*.    i.^.^.U     W.^.^.W     $.d.    &.^.^.E     C.^.^.^.^.^.A.    T ^.^.^.^.^.^.^.^.^.^.^.",
"^.^.^.^.^.^.^.^.R     V.^.^.^.^.^.^.+.    f.^.^.U     W.^.^.Y.C   # -.    &.^.^.E     C.^.^.^.^.^.A.    T ^.^.^.^.^.^.^.^.^.^.^.",
"^.^.^.^.^.^.^.^.;.    ..^.^.^.^.^.E.V   @ E.^.^.U     W.^.^.^.f.X   =     &.^.^.E     C.^.^.^.^.^.A.    T ^.^.^.^.^.^.^.^.^.^.^.",
"^.^.^.^.^.^.^.^.Y.*   o &.^.^.^.U.K     Y ^.^.^.U     W.^.^.^.^...        &.^.^.E     C.^.^.^.^.^.A.    T ^.^.^.^.^.^.^.^.^.^.^.",
"^.^.^.^.^.^.^.^.^.<.      A I L %     M P.^.^.^.U     W.^.^.^.^.W.D       &.^.^.E     C.^.^.^.^.^.A.    T ^.^.^.^.^.^.^.^.^.^.^.",
"^.^.^.^.^.^.^.^.^.^.*.+             B N.^.^.^.^.U     W.^.^.^.^.^.j.O     &.^.^.E     C.^.^.^.^.^.A.    T ^.^.^.^.^.^.^.^.^.^.^.",
"^.^.^.^.^.^.^.^.^.^.^.l.I -     S @.Y.^.^.^.^.^.o.F F Q.^.^.^.^.^.^.#.F F ,.^.^.@.F F A.^.^.^.^.^.I.F F +.^.^.^.^.^.^.^.^.^.^.^.",
"^.^.^.^.^.^.^.^.^.^.^.^.^.^.W.Q.^.^.^.^.^.^.^.^.^.^.^.^.^.^.^.^.^.^.^.^.^.^.^.^.^.^.^.^.^.^.^.^.^.^.^.^.^.^.^.^.^.^.^.^.^.^.^.^.",
"^.^.^.^.^.^.^.^.^.^.^.^.^.^.^.^.^.^.^.^.^.^.^.^.^.^.^.^.^.^.^.^.^.^.^.^.^.^.^.^.^.^.^.^.^.^.^.^.^.^.^.^.^.^.^.^.^.^.^.^.^.^.^.^.",
"^.^.^.^.^.^.^.^.^.^.^.^.^.^.^.^.^.^.^.^.^.^.^.^.^.^.^.^.^.^.^.^.^.^.^.^.^.^.^.^.^.^.^.^.^.^.^.^.^.^.^.^.^.^.^.^.^.^.^.^.^.^.^.^.",
"^.^.^.^.^.^.^.^.^.^.^.^.^.^.^.^.^.^.^.^.^.^.^.^.^.^.^.^.^.^.^.^.^.^.^.^.^.^.^.^.^.^.^.^.^.^.^.^.^.^.^.^.^.^.^.^.^.^.^.^.^.^.^.^."
};
