/* XPM */
static char *fa3bc22bc7494e84b5f75bf76882fd65[] = {
/* columns rows colors chars-per-pixel */
"64 64 66 1 ",
"  c #1B0000",
". c #240101",
"X c #2B0201",
"o c #340201",
"O c #3C0203",
"+ c #440303",
"@ c #4C0304",
"# c #430908",
"$ c #530504",
"% c #5C0503",
"& c #530807",
"* c #5D0807",
"= c #530B0B",
"- c #5B0B0B",
"; c #581111",
": c #630504",
"> c #6B0605",
", c #640807",
"< c #6C0807",
"1 c #650A09",
"2 c #6C0B09",
"3 c #720605",
"4 c #7A0705",
"5 c #730807",
"6 c #7C0807",
"7 c #740C0A",
"8 c #7B0C0A",
"9 c #64100E",
"0 c #6B110F",
"q c #77110F",
"w c #7C110F",
"e c #651514",
"r c #6D1312",
"t c #741211",
"y c #7C1412",
"u c #731917",
"i c #7D1816",
"p c #761918",
"a c #7D1B19",
"s c #800907",
"d c #820D0B",
"f c #8A0E0C",
"g c #83100F",
"h c #8C100F",
"j c #91110F",
"k c #831412",
"l c #8B1413",
"z c #821816",
"x c #8B1817",
"c c #841B1A",
"v c #8C1C1A",
"b c #941413",
"n c #981513",
"m c #951917",
"M c #9B1917",
"N c #941C1A",
"B c #991D1B",
"V c #A01E1C",
"C c #85201E",
"Z c #89201E",
"A c #92201F",
"S c #9B201F",
"D c #8C2322",
"F c #932221",
"G c #9D2321",
"H c #A02623",
/* pixels */
"Bfs534sssfffnh4444s6ssldwwklvNASSZ&@%ggzxxvvFp854552>,%$$@++O+++",
"Vf5ljssssffnbbh466ssssdd887<22tzvFF-1gkkxcvZFZ2227552,*%$@++O+@@",
"llfnnjssffjjmmmh66sssddddd7<>,:%%$-r7ggzxxvvA2>>>525>:*%$@@+++@@",
"$8nnnnnfffjnlbmmhss8sdsd6s6711%%$$:77wgkzcvva%>>><<22>:*$$@O+@@$",
"8nnnnnnjhhbmnmbmmf6sdds8668671%%%7775wykxzxv:%:>>1>><1*%%@++@@$$",
"lnnjnjnjjbmmmmmmNnfddfd6864444>17745>8gkkxvr%%::>:>>>>>*$$++@@$$",
"lnjnnnnnnnnmmmmmmmmhffs44444438g844<>2ygkck%%%%::::>>>,*%@+@@&%,",
"nnnnjnnjhbllllmmmmmmfff44333>%vz475<>>wkkk>:%%%%::::>>,**@@@$*2t",
"nnjnnhfdfbbgdwwlbmmNmff533>:%qAv775<>>5kk8>::%%%:%:::::,$+@*0qqq",
"nnjs4788hlblwd8455glmmf33>%%:vAA7453>::dy<>:%:::::%::>::@*0qwqqq",
"f4>>>34wbxnbgw845<>>>8k>%%%%yvvA83333>:782>:%,zy57qtqqqqqqqqqqqq",
"%::>>>4hbbbbh87533>:>28::%%2vNAAc33>>>>%%:>:%%zyyyqwyy7<qqqqqwqq",
"nk:%:>dllbbbb874<>>2788>:::kvvAAN53>>>:..O+$::icziyzy72>qt7qqqqq",
"MMMl>3lbbbbbbf,*%%,2778>>>8lvvAAF5>3>>O XO@&2qCDDFDDy2<<77777777",
"kkykgwhhlhhjhd:$%%:22785<5kxvNAAFy>>>$  XO-ti2cDDDDD75>>777q7777",
"%*157>hhhhhhh4>>:**127745ylxvvvAFc>>:  .#qky21iDDDDC7<<>272q7q7q",
":1777:sffffff3>333>,25788kxxvvvAAF>>o O0yky2:1qZcZCy725<<5777777",
"227w5>5fsffff>>544882<78fkkxvvAAFF5@X0ikkg0%,:0CcCcq72222:$$&$&%",
"l88d3<<sfdfd6>>488888w8kkkklvvAAFFi9ykyyy0%**:,cczyq72,,,%%$@++@",
"blkh<<58sdsd4>>48dddf8858ggkddwdwqqkyywwq$%%**:yziy772,,:*%$$$$@",
"fjlf5554ssdd33>5dfg875<>>4s8d882:,7qwwwq$$$%***qiy7q71$*:*%%$$$@",
"flnk>558ssss333>k8855<>>::5d8,@@%,2wwqw$@$$$$%%qyy7770$*::*%$$$$",
"nnbl2188d44s44338888455>>>:2,@++$*,7w7$@@@@$$$%2qq77qq@%:,*%%$$$",
"bmmbm$2dsss44425878855333>>778822,,2q%++@@$@$$$,q77q7t+:>***%,25",
"mmmmmg$2d84d8>>582254533>>>5788888881OO+@@@@$$$-77777q+2,,,17q77",
"mmmmmm7*2h4d>,2585:>>333>>:>27ywwwwq<+oOO++@@@@$77t7tw$,127q7772",
"BBBmmmm227d::><588%%%:35>%:>>>8ywwgy2%+O+@@$$%*:25577y2qtqqq7777",
"BBBBNmmk2772,:,25s:$$$%<:%%::>>kkkkk>%%@@@$$*:*,225<5<,>2>>,2>,2",
"GSMBMBmmyw77,*$@1t2587772$$%::>2zzkz,::$@$%*,1:-1<5<%O+%:%%%%%%%",
"HGHBBBNNmgw722qll-28788hvc2%%%::yxxz:>>>%%-:1$$%*%$oXX-*%%%%%%%:",
"HHGGGSNNNxggkxxxt@2577ykcvvz2%%%>cvv>,2>>*11$@@$@+OoXX2%:%%:%%::",
"GGGGSBBNmmllllhg$+2257kkkcczzy1%%0Zc:>>>22>$+$$$@+OOo#t:::::%%*:",
"BGSSABNNNkllllk*@@>228gkkzzzzyy8>*zc><<55>,,,*&$@++Ooe2::::%$$**",
"bASBBNmmN8khfl2$@@>,2kkggkkywwyq852y>*%@+O$>1**$@@+Ooa,>>>%@$$%*",
"mNBNbNNmg2kkkq*$@$>:whkkkkkyq887752*oOOO+@%%1*%%$@++OD>>:%@@@$$%",
"mmmNMNmv21lkg,%$+$%2gykkgkkq852>>::*@O++@$$%:>*$$@++=c><$++@@$@$",
"mmNBNmml$*lg21$$+$%8kgkkkk82<>>>::::%@+@$$%%%:%*&@@+ua<$OO+@@@$$",
"MmBBNml7@@g82,&@+$2gwdk85555%%>1:::%*$@$$%%%%%1%%$@+ai@oOO+@@$%*",
"qklBSNl@+@w7>*$@O%8yd83>><585%%%:::%%$$%%%:%::::&$@=D2%*:>>><3<>",
",*$$9yw%>334<,$++585>>>3358575%:::::%%$*:%%:::>:,$$1a1>>>>>>>>><",
"%*&@++:s43>34445>>>>3>333477872:::>>::%%1%::::>>>%$0>::>>>><>><>",
"%&@@+@<ss:>344448<>>>3333774747>>>>>5<<:>:::>:>2>2&2>%$*>>3><3>,",
"*$$@@@5s4>>>446652<>333374744787<>>2><<7tcccycayyyq22%@@:>>><<3:",
"*$@@*@4d33>3346s>><33355737775455<<<7775qwyizccacik72*+++:3>><2%",
"$$@*$@8s<5555888>::>35854577744757**$$$@2wyczzcziyyq2:OOOO><3<>%",
"*$,%$@d8555588d5%%%:<485555477qwty1O+@@$12qtyiiyyyyy7,oXooO2<2:$",
"$*2*$&s455888882$$$%%5554q7wqqqt7772+@@$:528qtwiyqqq7,XX..X+22%@",
"*72%@$84558888k1,>,2,2wyytwqqqqwq77q2$&$1322qwyyycyyq,. .   $5$$",
"771$@,88888kvFp*ygyyw71yqqqqqqq7277q72$*:22>2qyyiizCct@@+oOX %1y",
"82,%@,78wkvAAi$$0zkky7%7qqqqq77777q7775,25>,>,yyzzzcz#2<<>><>*0i",
"345:%5gkkxvZc$$@@ixxx1%>qqq77qt7t777777222>>:::8zicc=O:>>><32@+=",
">>>>:5gklxvx,%$$@&zcc:%:q7qqqq777q7727755%:2::%%yci9O+%<3<><$@++",
"3>>>3>wkkxk1%$$$@+1Dk%::>qq77q77727777,,>OoO+@@$$pr+++@<3<<,$@++",
"74wgv48glk211%$$@@+pz::::7q7777q7772,$%2>OOOOOOOO@*@@@$2<22*@@++",
"578gAv6gk721:%&$@@+@t::>><7777tq71&++$,:2++O+O+++%,%$$$225,%$@@+",
"<<8gAvxd77>1111><>55<%:><<77772$oooO@::,,@++@+++%::%*%*,22,*$@@+",
">>8xvNvy855855855><25:::>2771+ .XXo+%%%:,@@@@@@%%%%&@@*,32,%$%,2",
":2glvvx8888755552>><<>::::>@.   ..+$%%%::$$$@@%%:%%@@+O*2,>22532",
"%wdkvvk887874555>>>><2>>::>@+o   +$$%$%%:$$$$%::%%$@+OO+$$$$%*,%",
">dkkll447858852:::>>><>:>>:@+++XO@@$$$%%*%*%%:::%%@@@$$++oXXX;u%",
"8d8kl85584855:%::::>>>2>>>%@@@++@+@@$$$%%%%%>:::%@@+Oo....XXOCD%",
"w88ld3555585:%%%:::>>2>>>>%$@$$$:OO+@$$$%:,2>::%$O ....XXXoouZDp",
"d84k3335555:+@%%%%>::,>>>2*%%$$%:$+++@$$$>>>:%$$@$...XXXoOO;CCDD",
"gw483>>5843:%+O+$%%::>2>21,:%%$::%@@@@$$$22::%$$@@+oooOOOO@cccDD"
};
